# xmcd
#
# Track frame offsets: 
#        150
#        11562
#        22497
#        39435
#        53110
#        63305
#        77360
#        86817
#        100947
#        110950
#        124447
#        134157
#        144850
#        157817
#        172520
#        181887
#        192102
#        205982
#        217470
#        231487
#        240155
#        251485
#        274267
#        285105
#
# Disc length: 3940 seconds
#
# Revision: 0
# Processed by: cddbd v1.5.2PL0 Copyright (c) Steve Scherf et al.
# Submitted via: ExactAudioCopy v0.99pb3
#
DISCID=580f6218
DTITLE=John William - Negro Spirituals
DYEAR=1997
DGENRE=Negro Spirituals
TTITLE0=Father Martin
TTITLE1=Ils Te Crucifieront
TTITLE2=Va Mon Coeur
TTITLE3=Paix Aux Pauvres Gens
TTITLE4=Ave Maria
TTITLE5=Ouvre Les Yeux Éveille-Toi
TTITLE6=Marie Lève-Toi Et Marche
TTITLE7=Mes Frères
TTITLE8=Regarde La Lumière
TTITLE9=Un Autre Univers
TTITLE10=L'Homme Le Plus Fort
TTITLE11=Quatre Bouts De Bois
TTITLE12=Un Monde Meilleur
TTITLE13=Avec Tes Quatre Enfants
TTITLE14=Michael
TTITLE15=Notre Père
TTITLE16=Merci Dieu Merci
TTITLE17=Swing Low
TTITLE18=Ma Maison De Kentucky
TTITLE19=Jericho
TTITLE20=Saint James Infirmery
TTITLE21=Le Chemin Du Ciel
TTITLE22=Qui Peut Savoir
TTITLE23=Ezekiel Dans Le Ciel
EXTD=
EXTT0=
EXTT1=
EXTT2=
EXTT3=
EXTT4=
EXTT5=
EXTT6=
EXTT7=
EXTT8=
EXTT9=
EXTT10=
EXTT11=
EXTT12=
EXTT13=
EXTT14=
EXTT15=
EXTT16=
EXTT17=
EXTT18=
EXTT19=
EXTT20=
EXTT21=
EXTT22=
EXTT23=
PLAYORDER=
